<mxfile host="Electron" modified="2023-12-18T18:55:08.004Z" agent="Mozilla/5.0 (Windows NT 10.0; Win64; x64) AppleWebKit/537.36 (KHTML, like Gecko) draw.io/22.1.2 Chrome/114.0.5735.289 Electron/25.9.4 Safari/537.36" etag="iGiEe-krRuMPMMWSZ5fN" version="22.1.2" type="device">
  <diagram name="Page-1" id="o-Hc-DenjLCgIKtFiDpw">
    <mxGraphModel dx="1679" dy="733" grid="0" gridSize="10" guides="1" tooltips="1" connect="1" arrows="1" fold="1" page="0" pageScale="1" pageWidth="850" pageHeight="1100" math="0" shadow="0">
      <root>
        <mxCell id="0" />
        <mxCell id="1" parent="0" />
        <mxCell id="v_dbo5zeGbnnX_v_s0HW-3" value="" style="edgeStyle=none;curved=1;rounded=0;orthogonalLoop=1;jettySize=auto;html=1;endArrow=open;startSize=14;endSize=14;sourcePerimeterSpacing=8;targetPerimeterSpacing=8;" edge="1" parent="1" source="v_dbo5zeGbnnX_v_s0HW-1" target="v_dbo5zeGbnnX_v_s0HW-2">
          <mxGeometry relative="1" as="geometry" />
        </mxCell>
        <mxCell id="v_dbo5zeGbnnX_v_s0HW-1" value="INPUT" style="whiteSpace=wrap;html=1;" vertex="1" parent="1">
          <mxGeometry x="-201" y="74" width="120" height="206" as="geometry" />
        </mxCell>
        <mxCell id="v_dbo5zeGbnnX_v_s0HW-5" value="" style="edgeStyle=none;curved=1;rounded=0;orthogonalLoop=1;jettySize=auto;html=1;endArrow=open;startSize=14;endSize=14;sourcePerimeterSpacing=8;targetPerimeterSpacing=8;" edge="1" parent="1" source="v_dbo5zeGbnnX_v_s0HW-2" target="v_dbo5zeGbnnX_v_s0HW-4">
          <mxGeometry relative="1" as="geometry" />
        </mxCell>
        <mxCell id="v_dbo5zeGbnnX_v_s0HW-2" value="BUSINESS" style="whiteSpace=wrap;html=1;" vertex="1" parent="1">
          <mxGeometry x="39" y="74" width="120" height="206" as="geometry" />
        </mxCell>
        <mxCell id="v_dbo5zeGbnnX_v_s0HW-7" value="" style="edgeStyle=none;curved=1;rounded=0;orthogonalLoop=1;jettySize=auto;html=1;endArrow=open;startSize=14;endSize=14;sourcePerimeterSpacing=8;targetPerimeterSpacing=8;" edge="1" parent="1" source="v_dbo5zeGbnnX_v_s0HW-4" target="v_dbo5zeGbnnX_v_s0HW-6">
          <mxGeometry relative="1" as="geometry" />
        </mxCell>
        <mxCell id="v_dbo5zeGbnnX_v_s0HW-4" value="FACADE" style="whiteSpace=wrap;html=1;" vertex="1" parent="1">
          <mxGeometry x="279" y="74" width="120" height="206" as="geometry" />
        </mxCell>
        <mxCell id="v_dbo5zeGbnnX_v_s0HW-6" value="INTEGRATION" style="whiteSpace=wrap;html=1;" vertex="1" parent="1">
          <mxGeometry x="519" y="74" width="120" height="206" as="geometry" />
        </mxCell>
        <mxCell id="v_dbo5zeGbnnX_v_s0HW-12" style="edgeStyle=none;curved=1;rounded=0;orthogonalLoop=1;jettySize=auto;html=1;exitX=1;exitY=0.5;exitDx=0;exitDy=0;entryX=0;entryY=0.5;entryDx=0;entryDy=0;endArrow=open;startSize=14;endSize=14;sourcePerimeterSpacing=8;targetPerimeterSpacing=8;" edge="1" parent="1" source="v_dbo5zeGbnnX_v_s0HW-8" target="v_dbo5zeGbnnX_v_s0HW-10">
          <mxGeometry relative="1" as="geometry" />
        </mxCell>
        <mxCell id="v_dbo5zeGbnnX_v_s0HW-13" style="edgeStyle=none;curved=1;rounded=0;orthogonalLoop=1;jettySize=auto;html=1;exitX=1;exitY=0.75;exitDx=0;exitDy=0;entryX=0;entryY=0.25;entryDx=0;entryDy=0;endArrow=open;startSize=14;endSize=14;sourcePerimeterSpacing=8;targetPerimeterSpacing=8;" edge="1" parent="1" source="v_dbo5zeGbnnX_v_s0HW-8" target="v_dbo5zeGbnnX_v_s0HW-11">
          <mxGeometry relative="1" as="geometry" />
        </mxCell>
        <mxCell id="v_dbo5zeGbnnX_v_s0HW-8" value="check" style="whiteSpace=wrap;html=1;" vertex="1" parent="1">
          <mxGeometry x="290" y="85" width="89" height="40" as="geometry" />
        </mxCell>
        <mxCell id="v_dbo5zeGbnnX_v_s0HW-10" value="findCustomer" style="whiteSpace=wrap;html=1;" vertex="1" parent="1">
          <mxGeometry x="534.5" y="79" width="89" height="40" as="geometry" />
        </mxCell>
        <mxCell id="v_dbo5zeGbnnX_v_s0HW-11" value="createCustomer" style="whiteSpace=wrap;html=1;" vertex="1" parent="1">
          <mxGeometry x="534.5" y="125" width="89" height="40" as="geometry" />
        </mxCell>
        <mxCell id="v_dbo5zeGbnnX_v_s0HW-14" value="CIRCUITBREAKER" style="text;html=1;align=center;verticalAlign=middle;resizable=0;points=[];autosize=1;strokeColor=none;fillColor=none;" vertex="1" parent="1">
          <mxGeometry x="275" y="44" width="124" height="26" as="geometry" />
        </mxCell>
        <mxCell id="v_dbo5zeGbnnX_v_s0HW-15" value="RETRY" style="text;html=1;align=center;verticalAlign=middle;resizable=0;points=[];autosize=1;strokeColor=none;fillColor=none;" vertex="1" parent="1">
          <mxGeometry x="547" y="48" width="58" height="26" as="geometry" />
        </mxCell>
        <mxCell id="v_dbo5zeGbnnX_v_s0HW-16" value="" style="edgeStyle=none;orthogonalLoop=1;jettySize=auto;html=1;shape=flexArrow;rounded=1;startSize=8;endSize=8;endArrow=open;sourcePerimeterSpacing=8;targetPerimeterSpacing=8;curved=1;" edge="1" parent="1">
          <mxGeometry width="140" relative="1" as="geometry">
            <mxPoint x="-25" y="395" as="sourcePoint" />
            <mxPoint x="88" y="395" as="targetPoint" />
            <Array as="points" />
          </mxGeometry>
        </mxCell>
        <mxCell id="v_dbo5zeGbnnX_v_s0HW-17" value="restCall" style="text;html=1;align=center;verticalAlign=middle;resizable=0;points=[];autosize=1;strokeColor=none;fillColor=none;" vertex="1" parent="1">
          <mxGeometry x="-10" y="355" width="59" height="26" as="geometry" />
        </mxCell>
        <mxCell id="v_dbo5zeGbnnX_v_s0HW-18" value="" style="edgeStyle=none;orthogonalLoop=1;jettySize=auto;html=1;shape=flexArrow;rounded=1;startSize=8;endSize=8;endArrow=open;sourcePerimeterSpacing=8;targetPerimeterSpacing=8;curved=1;" edge="1" parent="1">
          <mxGeometry width="140" relative="1" as="geometry">
            <mxPoint x="244" y="220" as="sourcePoint" />
            <mxPoint x="384" y="220" as="targetPoint" />
            <Array as="points" />
          </mxGeometry>
        </mxCell>
        <mxCell id="v_dbo5zeGbnnX_v_s0HW-19" value="" style="edgeStyle=none;orthogonalLoop=1;jettySize=auto;html=1;shape=flexArrow;rounded=1;startSize=8;endSize=8;endArrow=open;sourcePerimeterSpacing=8;targetPerimeterSpacing=8;curved=1;" edge="1" parent="1">
          <mxGeometry width="140" relative="1" as="geometry">
            <mxPoint x="94" y="395" as="sourcePoint" />
            <mxPoint x="309" y="398" as="targetPoint" />
            <Array as="points" />
          </mxGeometry>
        </mxCell>
        <mxCell id="v_dbo5zeGbnnX_v_s0HW-21" value="MS" style="text;html=1;align=center;verticalAlign=middle;resizable=0;points=[];autosize=1;strokeColor=none;fillColor=none;" vertex="1" parent="1">
          <mxGeometry x="186" y="352" width="36" height="26" as="geometry" />
        </mxCell>
        <mxCell id="v_dbo5zeGbnnX_v_s0HW-22" value="" style="edgeStyle=none;orthogonalLoop=1;jettySize=auto;html=1;shape=flexArrow;rounded=1;startSize=8;endSize=8;endArrow=open;sourcePerimeterSpacing=8;targetPerimeterSpacing=8;curved=1;" edge="1" parent="1">
          <mxGeometry width="140" relative="1" as="geometry">
            <mxPoint x="315" y="397" as="sourcePoint" />
            <mxPoint x="396" y="400" as="targetPoint" />
            <Array as="points" />
          </mxGeometry>
        </mxCell>
        <mxCell id="v_dbo5zeGbnnX_v_s0HW-23" value="response" style="text;html=1;align=center;verticalAlign=middle;resizable=0;points=[];autosize=1;strokeColor=none;fillColor=none;" vertex="1" parent="1">
          <mxGeometry x="381" y="352" width="67" height="26" as="geometry" />
        </mxCell>
        <mxCell id="v_dbo5zeGbnnX_v_s0HW-24" value="" style="edgeStyle=none;orthogonalLoop=1;jettySize=auto;html=1;shape=flexArrow;rounded=1;startSize=8;endSize=8;endArrow=open;sourcePerimeterSpacing=8;targetPerimeterSpacing=8;curved=1;" edge="1" parent="1">
          <mxGeometry width="140" relative="1" as="geometry">
            <mxPoint x="-22" y="456" as="sourcePoint" />
            <mxPoint x="91" y="456" as="targetPoint" />
            <Array as="points" />
          </mxGeometry>
        </mxCell>
        <mxCell id="v_dbo5zeGbnnX_v_s0HW-25" value="" style="edgeStyle=none;orthogonalLoop=1;jettySize=auto;html=1;shape=flexArrow;rounded=1;startSize=8;endSize=8;endArrow=open;sourcePerimeterSpacing=8;targetPerimeterSpacing=8;curved=1;" edge="1" parent="1" target="v_dbo5zeGbnnX_v_s0HW-26">
          <mxGeometry width="140" relative="1" as="geometry">
            <mxPoint x="306" y="458" as="sourcePoint" />
            <mxPoint x="387" y="461" as="targetPoint" />
            <Array as="points" />
          </mxGeometry>
        </mxCell>
        <mxCell id="v_dbo5zeGbnnX_v_s0HW-26" value="Pub/Sub" style="rounded=0;whiteSpace=wrap;html=1;" vertex="1" parent="1">
          <mxGeometry x="307" y="482" width="236" height="29" as="geometry" />
        </mxCell>
        <mxCell id="v_dbo5zeGbnnX_v_s0HW-29" value="Th" style="ellipse;whiteSpace=wrap;html=1;" vertex="1" parent="1">
          <mxGeometry x="-33" y="275" width="80" height="80" as="geometry" />
        </mxCell>
      </root>
    </mxGraphModel>
  </diagram>
</mxfile>
